HIERARCHY
ROOT Pelvis
{
	OFFSET 0.000000 0.000000 0.000000
	CHANNELS 6 Xposition Yposition Zposition Xrotation Yrotation Zrotation
	JOINT LeftUpLeg_virtual
	{
		OFFSET 0.000000 0.000000 0.000000
		CHANNELS 3 Xrotation Yrotation Zrotation
		JOINT LeftUpLeg
		{
			OFFSET 18.735201 -5.666702 -4.541200
			CHANNELS 3 Xrotation Yrotation Zrotation
			JOINT LeftLeg
			{
				OFFSET -0.021200 -31.938179 0.493100
				CHANNELS 3 Xrotation Yrotation Zrotation
				JOINT LeftFoot
				{
					OFFSET 0.021200 -31.938179 -4.336299
					CHANNELS 3 Xrotation Yrotation Zrotation
					JOINT LeftToeBase
					{
						OFFSET 0.943001 -26.722000 15.023500
						CHANNELS 3 Xrotation Yrotation Zrotation
						End Site
						{
							OFFSET 0 0 0
						}
					}
				}
			}
		}
	}
	JOINT RightUpLeg_virtual
	{
		OFFSET 0.000000 0.000000 0.000000
		CHANNELS 3 Xrotation Yrotation Zrotation
		JOINT RightUpLeg
		{
			OFFSET -18.735201 -5.666702 -4.541200
			CHANNELS 3 Xrotation Yrotation Zrotation
			JOINT RightLeg
			{
				OFFSET 0.018946 -31.938133 0.493100
				CHANNELS 3 Xrotation Yrotation Zrotation
				JOINT RightFoot
				{
					OFFSET -0.018946 -31.938126 -4.336299
					CHANNELS 3 Xrotation Yrotation Zrotation
					JOINT RightToeBase
					{
						OFFSET -0.943001 -26.722004 15.023500
						CHANNELS 3 Xrotation Yrotation Zrotation
						End Site
						{
							OFFSET 0 0 0
						}
					}
				}
			}
		}
	}
	JOINT Hips_virtual
	{
		OFFSET 0.000000 0.000000 0.000000
		CHANNELS 3 Xrotation Yrotation Zrotation
		JOINT Hips
		{
			OFFSET -0.000000 -0.000000 -0.000000
			CHANNELS 3 Xrotation Yrotation Zrotation
			JOINT Spine
			{
				OFFSET 0.000000 10.199997 -0.299500
				CHANNELS 3 Xrotation Yrotation Zrotation
				JOINT Spine1
				{
					OFFSET 0.000000 11.900002 -1.516600
					CHANNELS 3 Xrotation Yrotation Zrotation
					JOINT Spine2
					{
						OFFSET 0.000000 13.600006 -2.842500
						CHANNELS 3 Xrotation Yrotation Zrotation
						JOINT Neck_virtual
						{
							OFFSET 0.000000 0.000000 0.000000
							CHANNELS 3 Xrotation Yrotation Zrotation
							JOINT Neck
							{
								OFFSET 0.000000 9.624100 -2.890100
								CHANNELS 3 Xrotation Yrotation Zrotation
								JOINT Head
								{
									OFFSET 0.000000 14.068802 -1.351900
									CHANNELS 3 Xrotation Yrotation Zrotation
									End Site
									{
										OFFSET 0 0 0
									}
								}
							}
						}
						JOINT LeftShoulder_virtual
						{
							OFFSET 0.000000 0.000000 0.000000
							CHANNELS 3 Xrotation Yrotation Zrotation
							JOINT LeftShoulder
							{
								OFFSET 15.263000 10.923401 -0.547700
								CHANNELS 3 Xrotation Yrotation Zrotation
								JOINT LeftArm
								{
									OFFSET 25.438599 -2.830597 -13.032500
									CHANNELS 3 Xrotation Yrotation Zrotation
									JOINT LeftForeArm
									{
										OFFSET 29.960503 0.000000 0.000000
										CHANNELS 3 Xrotation Yrotation Zrotation
										JOINT LeftHand
										{
											OFFSET 27.849251 0.000000 0.000000
											CHANNELS 3 Xrotation Yrotation Zrotation
											End Site
											{
												OFFSET 0 0 0
											}
										}
									}
								}
							}
						}
						JOINT RightShoulder_virtual
						{
							OFFSET 0.000000 0.000000 0.000000
							CHANNELS 3 Xrotation Yrotation Zrotation
							JOINT RightShoulder
							{
								OFFSET -15.263000 10.923401 -0.547700
								CHANNELS 3 Xrotation Yrotation Zrotation
								JOINT RightArm
								{
									OFFSET -25.438599 -2.830597 -13.032500
									CHANNELS 3 Xrotation Yrotation Zrotation
									JOINT RightForeArm
									{
										OFFSET -29.960503 0.000000 0.000000
										CHANNELS 3 Xrotation Yrotation Zrotation
										JOINT RightHand
										{
											OFFSET -27.849251 0.000000 0.000000
											CHANNELS 3 Xrotation Yrotation Zrotation
											End Site
											{
												OFFSET 0 0 0
											}
										}
									}
								}
							}
						}
					}
				}
			}
		}
	}
}
MOTION
Frames: 5
Frame Time: 0.03333333
-1.002132 93.039833 1.366913 0.000000 0.000000 0.000000 6.477723 -15.961486 -0.868529 -33.587578 7.395838 14.734074 33.134361 3.952780 -1.549308 -14.213665 4.888139 -5.197949 0.000000 0.000000 0.000000 10.497410 -12.430014 1.874642 -16.815974 -9.442070 -14.548043 29.846793 5.303767 -0.951884 -18.758905 1.597318 12.640874 0.000000 0.000000 0.000000 -1.199092 -20.078881 0.712174 5.842281 -4.153438 -2.821640 6.879773 -1.541872 0.359185 1.318689 -0.591926 0.549755 0.000000 0.000000 0.000000 -0.097404 2.021673 0.392648 -1.211952 2.619881 -0.634075 0.000000 0.000000 0.000000 0.507767 -1.045037 1.930368 0.581914 -5.272638 -0.093591 -42.171856 -13.650713 -37.632163 -9.757898 -55.355125 -3.780359 0.000000 0.000000 0.000000 2.509838 -1.131166 1.638373 3.226894 6.465278 9.008508 14.012148 -2.165591 50.534685 6.744234 39.299857 0.406823 0.000000 0.000000 0.000000 
-0.951433 93.023262 1.325304 0.000000 0.000000 0.000000 6.447693 -15.966727 -0.911770 -33.655778 7.407864 14.712200 33.177975 3.940244 -1.535737 -14.183953 4.870267 -5.194919 0.000000 0.000000 0.000000 10.498071 -12.415093 1.888088 -16.811836 -9.439739 -14.526405 29.863421 5.278362 -0.978563 -18.757194 1.589385 12.569521 0.000000 0.000000 0.000000 -1.246686 -20.218547 0.719376 5.925212 -3.761744 -2.926451 6.887283 -1.556565 0.339552 1.300073 -0.567167 0.580684 0.000000 0.000000 0.000000 -0.115809 2.010598 0.425766 -1.198136 2.659074 -0.647885 0.000000 0.000000 0.000000 0.503073 -1.057749 1.923281 0.600828 -5.149146 -0.154061 -42.372544 -13.803735 -37.464079 -9.721121 -55.311589 -3.863576 0.000000 0.000000 0.000000 2.469806 -1.110931 1.673669 3.293876 6.566051 8.978648 14.139819 -2.355487 50.490647 6.713080 39.469266 0.406544 0.000000 0.000000 0.000000 
-0.857162 92.986481 1.251656 0.000000 0.000000 0.000000 6.385309 -15.959128 -0.997045 -33.787088 7.433726 14.668260 33.263404 3.912736 -1.508390 -14.125498 4.831803 -5.188415 0.000000 0.000000 0.000000 10.499398 -12.382552 1.913875 -16.802848 -9.434464 -14.483858 29.892477 5.222625 -1.023084 -18.752798 1.563957 12.439797 0.000000 0.000000 0.000000 -1.353738 -20.487692 0.727386 6.089230 -3.012147 -3.122834 6.895730 -1.575010 0.308344 1.264162 -0.520920 0.637602 0.000000 0.000000 0.000000 -0.152190 1.994020 0.487324 -1.170379 2.734311 -0.673314 0.000000 0.000000 0.000000 0.500495 -1.078007 1.909676 0.636551 -4.910283 -0.261349 -42.746794 -14.069676 -37.142183 -9.650664 -55.217947 -4.016840 0.000000 0.000000 0.000000 2.401159 -1.073233 1.737036 3.424194 6.748588 8.913854 14.369442 -2.719872 50.412414 6.657656 39.787156 0.405350 0.000000 0.000000 0.000000 
-0.729714 92.923996 1.164417 0.000000 0.000000 0.000000 6.288621 -15.908824 -1.121210 -33.971264 7.476542 14.602825 33.385678 3.866477 -1.467468 -14.041648 4.768864 -5.178383 0.000000 0.000000 0.000000 10.501859 -12.329525 1.948688 -16.787166 -9.425515 -14.423633 29.926293 5.129690 -1.071814 -18.745019 1.506932 12.272340 0.000000 0.000000 0.000000 -1.537173 -20.866817 0.725909 6.324662 -1.966741 -3.391980 6.896830 -1.581028 0.278571 1.212801 -0.459309 0.712533 0.000000 0.000000 0.000000 -0.203508 1.981708 0.569139 -1.128335 2.840537 -0.706825 0.000000 0.000000 0.000000 0.510494 -1.097367 1.891396 0.685718 -4.570346 -0.391751 -43.248754 -14.387713 -36.697691 -9.555303 -55.070907 -4.221421 0.000000 0.000000 0.000000 2.322739 -1.022672 1.816442 3.609732 6.980088 8.807276 14.658879 -3.232359 50.317703 6.588666 40.221102 0.402198 0.000000 0.000000 0.000000 
-0.578151 92.831734 1.088138 0.000000 0.000000 0.000000 6.159784 -15.784019 -1.278655 -34.193238 7.540011 14.518096 33.535846 3.797918 -1.414157 -13.939158 4.678397 -5.165918 0.000000 0.000000 0.000000 10.506537 -12.255631 1.985839 -16.762049 -9.412416 -14.353354 29.955960 4.994906 -1.112209 -18.734318 1.406848 12.087661 0.000000 0.000000 0.000000 -1.808251 -21.327621 0.704973 6.609134 -0.707568 -3.717099 6.886982 -1.561189 0.263402 1.147685 -0.390268 0.797220 0.000000 0.000000 0.000000 -0.261957 1.985433 0.661332 -1.071575 2.972488 -0.744774 0.000000 0.000000 0.000000 0.542699 -1.106841 1.872269 0.744373 -4.146381 -0.517600 -43.825769 -14.701680 -36.179478 -9.451588 -54.881304 -4.462415 0.000000 0.000000 0.000000 2.254858 -0.963976 1.898844 3.837311 7.223313 8.655396 14.963377 -3.860300 50.229245 6.516295 40.740965 0.396474 0.000000 0.000000 0.000000 
